<?xml version="1.0" standalone="no"?>
<!DOCTYPE svg PUBLIC "-//W3C//DTD SVG 20010904//EN"
 "http://www.w3.org/TR/2001/REC-SVG-20010904/DTD/svg10.dtd">
<svg version="1.0" xmlns="http://www.w3.org/2000/svg"
 width="512.000000pt" height="512.000000pt" viewBox="0 0 512.000000 512.000000"
 preserveAspectRatio="xMidYMid meet">

<g transform="translate(0.000000,512.000000) scale(0.100000,-0.100000)"
fill="#000000" stroke="none">
<path d="M2240 4289 c-618 -78 -1065 -499 -1235 -1163 -51 -201 -68 -355 -68
-616 -1 -255 14 -394 64 -589 78 -313 216 -553 437 -763 195 -185 428 -302
715 -360 151 -31 510 -33 652 -5 309 61 576 203 768 407 177 188 290 420 346
713 24 124 26 176 9 182 -13 3 -892 56 -939 55 -25 0 -27 -4 -33 -61 -18 -152
-74 -301 -144 -380 -104 -117 -296 -158 -460 -97 -79 30 -174 122 -216 212
-71 150 -98 336 -99 681 -1 416 42 637 160 816 65 100 139 149 255 169 162 29
334 -64 415 -223 36 -73 63 -189 70 -305 4 -74 10 -105 20 -109 12 -5 703 28
901 43 l82 6 0 48 c0 72 -35 261 -70 380 -36 120 -119 301 -184 398 -213 321
-517 502 -934 557 -121 16 -401 18 -512 4z"/>
</g>
</svg>
